<svg width="16" height="15" viewBox="0 0 16 15" fill="none" xmlns="http://www.w3.org/2000/svg">
<path d="M14.825 10.7167L13.8834 9.15001C13.675 8.80834 13.4917 8.15001 13.4917 7.75001V6.19168C13.4917 3.16668 11.0334 0.708344 8.01669 0.708344C4.99169 0.716677 2.53336 3.16668 2.53336 6.19168V7.74168C2.53336 8.14168 2.35003 8.80001 2.15003 9.14168L1.20836 10.7083C0.850027 11.3167 0.766693 12.0083 0.991693 12.6083C1.21669 13.2167 1.72503 13.7 2.39169 13.9167C3.29169 14.2167 4.20003 14.4333 5.12503 14.5917C5.21669 14.6083 5.30836 14.6167 5.40003 14.6333C5.51669 14.65 5.64169 14.6667 5.76669 14.6833C5.98336 14.7167 6.20003 14.7417 6.42503 14.7583C6.95003 14.8083 7.48336 14.8333 8.01669 14.8333C8.54169 14.8333 9.06669 14.8083 9.58336 14.7583C9.77503 14.7417 9.96669 14.725 10.15 14.7C10.3 14.6833 10.45 14.6667 10.6 14.6417C10.6917 14.6333 10.7834 14.6167 10.875 14.6C11.8084 14.45 12.7334 14.2167 13.6334 13.9167C14.275 13.7 14.7667 13.2167 15 12.6C15.2334 11.975 15.1667 11.2917 14.825 10.7167ZM8.62503 7.33334C8.62503 7.68334 8.34169 7.96668 7.99169 7.96668C7.64169 7.96668 7.35836 7.68334 7.35836 7.33334V4.75001C7.35836 4.40001 7.64169 4.11668 7.99169 4.11668C8.34169 4.11668 8.62503 4.40001 8.62503 4.75001V7.33334Z" fill="white"/>
</svg>
